<svg width="20" height="20" viewBox="0 0 415 415" fill="none" xmlns="http://www.w3.org/2000/svg">
<g clip-path="url(#clip0)">
<path d="M3.663 410.637C6.104 413.077 9.303 414.298 12.502 414.298C15.701 414.298 18.9 413.077 21.341 410.637L207.15 224.827L392.96 410.638C395.4 413.078 398.601 414.299 401.8 414.299C404.998 414.299 408.197 413.078 410.639 410.638C415.52 405.757 415.52 397.842 410.639 392.959L224.828 207.149L410.639 21.339C415.52 16.457 415.52 8.54301 410.639 3.66101C405.757 -1.22099 397.843 -1.22099 392.96 3.66101L207.15 189.471L21.34 3.66301C16.458 -1.21899 8.544 -1.21899 3.662 3.66301C-1.22 8.54401 -1.22 16.459 3.662 21.341L189.472 207.15L3.663 392.959C-1.219 397.841 -1.219 405.756 3.663 410.637Z" fill="#93bb1c"/>
</g>
<defs>
<clipPath id="clip0">
<rect width="414.298" height="414.299" fill="white"/>
</clipPath>
</defs>
</svg>
