<svg width="20" height="20" viewBox="0 0 100 100" fill="none" xmlns="http://www.w3.org/2000/svg">
<g clip-path="url(#clip0)">
<path d="M49.2389 34.1627L63.5538 48.4776L63.622 47.7277C63.622 40.2067 57.5098 34.0945 49.9887 34.0945L49.2389 34.1627Z" fill="white"/>
<path d="M49.9886 25.0058C62.5312 25.0058 72.7108 35.1854 72.7108 47.728C72.7108 50.6592 72.1201 53.454 71.0976 56.0215L84.39 69.314C91.252 63.588 96.6599 56.1806 100 47.728C92.1156 27.7781 72.7336 13.6449 49.9888 13.6449C43.6266 13.6449 37.5372 14.7809 31.8794 16.8259L41.6953 26.619C44.2626 25.6193 47.0575 25.0058 49.9886 25.0058Z" fill="white"/>
<path d="M4.54435 12.6221L14.9056 22.9834L16.9734 25.0512C9.47512 30.9135 3.54465 38.7072 0 47.7278C7.86192 67.6777 27.2665 81.8109 49.9887 81.8109C57.0326 81.8109 63.7583 80.4476 69.9161 77.9708L71.8475 79.9023L85.0946 93.1719L90.8887 87.4006L10.3385 6.82797L4.54435 12.6221ZM29.6751 37.7301L36.6963 44.7512C36.4918 45.7284 36.3554 46.7053 36.3554 47.7278C36.3554 55.2489 42.4676 61.361 49.9887 61.361C51.0112 61.361 51.9883 61.2247 52.9427 61.0202L59.9638 68.0413C56.9417 69.541 53.5789 70.4499 49.9887 70.4499C37.4461 70.4499 27.2665 60.2704 27.2665 47.7278C27.2665 44.1377 28.1755 40.7748 29.6751 37.7301Z" fill="white"/>
</g>
<defs>
<clipPath id="clip0">
<rect width="100" height="100" fill="white"/>
</clipPath>
</defs>
</svg>
