<svg width="20" height="20" viewBox="0 0 20 20" fill="none" xmlns="http://www.w3.org/2000/svg">
<path d="M9.99991 0C5.92603 0 2.61182 3.31421 2.61182 7.38809C2.61182 8.72925 3.21329 10.1717 3.2385 10.2325C3.43276 10.6936 3.81608 11.4098 4.09248 11.8296L9.1581 19.505C9.3654 19.8196 9.67223 20 9.99991 20C10.3276 20 10.6344 19.8196 10.8417 19.5054L15.9078 11.8296C16.1846 11.4098 16.5675 10.6936 16.7618 10.2325C16.787 10.1721 17.388 8.72968 17.388 7.38809C17.388 3.31421 14.0738 0 9.99991 0ZM15.9604 9.89526C15.787 10.3086 15.4302 10.9748 15.182 11.3512L10.1159 19.0269C10.016 19.1786 9.98426 19.1786 9.88431 19.0269L4.81825 11.3512C4.5701 10.9748 4.21329 10.3081 4.03989 9.89483C4.0325 9.87701 3.481 8.54933 3.481 7.38809C3.481 3.79357 6.40539 0.869187 9.99991 0.869187C13.5944 0.869187 16.5188 3.79357 16.5188 7.38809C16.5188 8.55106 15.966 9.88222 15.9604 9.89526Z" fill="black"/>
<path d="M9.99996 3.47717C7.84308 3.47717 6.08862 5.23206 6.08862 7.38852C6.08862 9.54498 7.84308 11.2999 9.99996 11.2999C12.1568 11.2999 13.9113 9.54498 13.9113 7.38852C13.9113 5.23206 12.1568 3.47717 9.99996 3.47717ZM9.99996 10.4307C8.32287 10.4307 6.95781 9.06606 6.95781 7.38852C6.95781 5.71099 8.32287 4.34636 9.99996 4.34636C11.6771 4.34636 13.0421 5.71099 13.0421 7.38852C13.0421 9.06606 11.6771 10.4307 9.99996 10.4307Z" fill="black"/>
</svg>
