<svg width="20" height="20" viewBox="0 0 100 100" fill="none" xmlns="http://www.w3.org/2000/svg">
<g clip-path="url(#clip0)">
<path d="M50.0001 36.3638C42.4773 36.3638 36.3638 42.4773 36.3638 50.0001C36.3638 57.5229 42.4773 63.6365 50.0001 63.6365C57.5229 63.6365 63.6365 57.5229 63.6365 50.0001C63.6365 42.4773 57.5227 36.3638 50.0001 36.3638Z" fill="white"/>
<path d="M50.0001 15.9092C27.2727 15.9092 7.86371 30.0454 0 50.0001C7.86371 69.9546 27.2727 84.091 50.0001 84.091C72.75 84.091 92.1365 69.9546 100 50.0001C92.1365 30.0454 72.75 15.9092 50.0001 15.9092ZM50.0001 72.7273C37.4546 72.7273 27.2727 62.5454 27.2727 49.9999C27.2727 37.4544 37.4546 27.2728 50.0001 27.2728C62.5456 27.2728 72.7275 37.4546 72.7275 50.0001C72.7275 62.5456 62.5456 72.7273 50.0001 72.7273Z" fill="white"/>
</g>
<defs>
<clipPath id="clip0">
<rect width="100" height="100" fill="white"/>
</clipPath>
</defs>
</svg>
